<mxfile host="app.diagrams.net" agent="Mozilla/5.0 (Windows NT 10.0; Win64; x64) AppleWebKit/537.36 (KHTML, like Gecko) Chrome/138.0.0.0 Safari/537.36" version="28.0.4">
  <diagram name="Page-1" id="6133507b-19e7-1e82-6fc7-422aa6c4b21f">
    <mxGraphModel grid="1" page="1" gridSize="5" guides="1" tooltips="1" connect="1" arrows="1" fold="1" pageScale="1" pageWidth="1600" pageHeight="900" background="none" math="0" shadow="0">
      <root>
        <mxCell id="0" />
        <mxCell id="1" parent="0" />
        <mxCell id="Q0jK7k3F3PSRROY3Gwau-55" style="endArrow=block;endSize=16;endFill=0;html=1;rounded=0;strokeColor=default;align=center;verticalAlign=middle;fontFamily=Helvetica;fontSize=12;fontColor=default;labelBackgroundColor=default;edgeStyle=orthogonalEdgeStyle;" edge="1" parent="1" source="78961159f06e98e8-108" target="78961159f06e98e8-69">
          <mxGeometry relative="1" as="geometry" />
        </mxCell>
        <mxCell id="78961159f06e98e8-69" value="&lt;div&gt;PreprocessorBase&lt;/div&gt;&lt;div&gt;&lt;span style=&quot;font-weight: normal;&quot;&gt;abstract class&lt;/span&gt;&lt;/div&gt;&lt;div&gt;&lt;span style=&quot;font-weight: normal;&quot;&gt;&lt;br&gt;&lt;/span&gt;&lt;/div&gt;" style="swimlane;html=1;fontStyle=1;align=center;verticalAlign=top;childLayout=stackLayout;horizontal=1;startSize=37;horizontalStack=0;resizeParent=1;resizeLast=0;collapsible=1;marginBottom=0;swimlaneFillColor=#ffffff;rounded=0;shadow=0;comic=0;labelBackgroundColor=none;strokeWidth=1;fillColor=none;fontFamily=Verdana;fontSize=12" vertex="1" parent="1">
          <mxGeometry x="195" y="294" width="270" height="180" as="geometry">
            <mxRectangle x="160" y="333" width="110" height="30" as="alternateBounds" />
          </mxGeometry>
        </mxCell>
        <mxCell id="78961159f06e98e8-70" value="+ Amount: float" style="text;html=1;strokeColor=none;fillColor=none;align=left;verticalAlign=top;spacingLeft=4;spacingRight=4;whiteSpace=wrap;overflow=hidden;rotatable=0;points=[[0,0.5],[1,0.5]];portConstraint=eastwest;" vertex="1" parent="78961159f06e98e8-69">
          <mxGeometry y="37" width="270" height="34" as="geometry" />
        </mxCell>
        <mxCell id="78961159f06e98e8-77" value="" style="line;html=1;strokeWidth=1;fillColor=none;align=left;verticalAlign=middle;spacingTop=-1;spacingLeft=3;spacingRight=3;rotatable=0;labelPosition=right;points=[];portConstraint=eastwest;" vertex="1" parent="78961159f06e98e8-69">
          <mxGeometry y="71" width="270" height="8" as="geometry" />
        </mxCell>
        <mxCell id="Q0jK7k3F3PSRROY3Gwau-4" value="+&amp;nbsp;&lt;span style=&quot;text-wrap-mode: nowrap;&quot;&gt;Run(Image&amp;lt;Rgba32&amp;gt;): Image&amp;lt;Rgba32&amp;gt;&lt;/span&gt;" style="text;html=1;strokeColor=none;fillColor=none;align=left;verticalAlign=top;spacingLeft=4;spacingRight=4;whiteSpace=wrap;overflow=hidden;rotatable=0;points=[[0,0.5],[1,0.5]];portConstraint=eastwest;" vertex="1" parent="78961159f06e98e8-69">
          <mxGeometry y="79" width="270" height="26" as="geometry" />
        </mxCell>
        <mxCell id="Q0jK7k3F3PSRROY3Gwau-5" value="+ &lt;span style=&quot;text-wrap-mode: nowrap;&quot;&gt;RunGPU(Image&amp;lt;Rgba32&amp;gt;): Image&amp;lt;Rgba32&amp;gt;&lt;/span&gt;" style="text;html=1;strokeColor=none;fillColor=none;align=left;verticalAlign=top;spacingLeft=4;spacingRight=4;whiteSpace=wrap;overflow=hidden;rotatable=0;points=[[0,0.5],[1,0.5]];portConstraint=eastwest;" vertex="1" parent="78961159f06e98e8-69">
          <mxGeometry y="105" width="270" height="26" as="geometry" />
        </mxCell>
        <mxCell id="Q0jK7k3F3PSRROY3Gwau-6" value="+&amp;nbsp;&lt;span style=&quot;text-wrap-mode: nowrap;&quot;&gt;RunCPU(Image&amp;lt;Rgba32&amp;gt;): Image&amp;lt;Rgba32&amp;gt;&lt;/span&gt;" style="text;html=1;strokeColor=none;fillColor=none;align=left;verticalAlign=top;spacingLeft=4;spacingRight=4;whiteSpace=wrap;overflow=hidden;rotatable=0;points=[[0,0.5],[1,0.5]];portConstraint=eastwest;" vertex="1" parent="78961159f06e98e8-69">
          <mxGeometry y="131" width="270" height="26" as="geometry" />
        </mxCell>
        <mxCell id="78961159f06e98e8-108" value="BlurPreprocessor" style="swimlane;html=1;fontStyle=1;align=center;verticalAlign=top;childLayout=stackLayout;horizontal=1;startSize=26;horizontalStack=0;resizeParent=1;resizeLast=0;collapsible=1;marginBottom=0;swimlaneFillColor=#ffffff;rounded=0;shadow=0;comic=0;labelBackgroundColor=none;strokeWidth=1;fillColor=none;fontFamily=Verdana;fontSize=12" vertex="1" parent="1">
          <mxGeometry x="35" y="557" width="190" height="90" as="geometry" />
        </mxCell>
        <mxCell id="Q0jK7k3F3PSRROY3Gwau-33" value="&lt;font style=&quot;font-size: 8px;&quot;&gt;+&amp;nbsp;&lt;span style=&quot;text-wrap-mode: nowrap;&quot;&gt;RunCPU(Image&amp;lt;Rgba32&amp;gt;): Image&amp;lt;Rgba32&amp;gt;&lt;/span&gt;&lt;/font&gt;" style="text;html=1;strokeColor=none;fillColor=none;align=left;verticalAlign=top;spacingLeft=4;spacingRight=4;whiteSpace=wrap;overflow=hidden;rotatable=0;points=[[0,0.5],[1,0.5]];portConstraint=eastwest;" vertex="1" parent="78961159f06e98e8-108">
          <mxGeometry y="26" width="190" height="26" as="geometry" />
        </mxCell>
        <mxCell id="Q0jK7k3F3PSRROY3Gwau-32" value="&lt;font style=&quot;font-size: 8px;&quot;&gt;+&amp;nbsp;&lt;span style=&quot;text-wrap-mode: nowrap;&quot;&gt;RunGPU(Image&amp;lt;Rgba32&amp;gt;): Image&amp;lt;Rgba32&amp;gt;&lt;/span&gt;&lt;/font&gt;" style="text;html=1;strokeColor=none;fillColor=none;align=left;verticalAlign=top;spacingLeft=4;spacingRight=4;whiteSpace=wrap;overflow=hidden;rotatable=0;points=[[0,0.5],[1,0.5]];portConstraint=eastwest;" vertex="1" parent="78961159f06e98e8-108">
          <mxGeometry y="52" width="190" height="26" as="geometry" />
        </mxCell>
        <mxCell id="b94bc138ca980ef-1" value="&lt;p style=&quot;margin:0px;margin-top:4px;text-align:center;&quot;&gt;&lt;i&gt;&amp;lt;&amp;lt;Interface&amp;gt;&amp;gt;&lt;/i&gt;&lt;br&gt;&lt;b&gt;IPreprocess&lt;/b&gt;&lt;/p&gt;&lt;p style=&quot;margin:0px;margin-left:4px;&quot;&gt;&lt;br&gt;&lt;/p&gt;&lt;hr size=&quot;1&quot;&gt;&lt;p style=&quot;margin:0px;margin-left:4px;&quot;&gt;+ Run(Image&amp;lt;Rgba32&amp;gt;): Image&amp;lt;Rgba32&amp;gt;&lt;br&gt;&lt;/p&gt;" style="verticalAlign=top;align=left;overflow=fill;fontSize=12;fontFamily=Helvetica;html=1;rounded=0;shadow=0;comic=0;labelBackgroundColor=none;strokeWidth=1" vertex="1" parent="1">
          <mxGeometry x="210" y="119" width="240" height="94" as="geometry" />
        </mxCell>
        <mxCell id="Q0jK7k3F3PSRROY3Gwau-44" style="endArrow=block;endSize=16;endFill=0;html=1;rounded=0;strokeColor=default;align=center;verticalAlign=middle;fontFamily=Helvetica;fontSize=12;fontColor=default;labelBackgroundColor=default;edgeStyle=orthogonalEdgeStyle;" edge="1" parent="1" source="Q0jK7k3F3PSRROY3Gwau-34" target="78961159f06e98e8-69">
          <mxGeometry relative="1" as="geometry">
            <mxPoint x="335.3333333333335" y="487" as="targetPoint" />
          </mxGeometry>
        </mxCell>
        <mxCell id="Q0jK7k3F3PSRROY3Gwau-34" value="Sharpen&lt;div&gt;Preprocessor&lt;/div&gt;" style="swimlane;html=1;fontStyle=1;align=center;verticalAlign=top;childLayout=stackLayout;horizontal=1;startSize=40;horizontalStack=0;resizeParent=1;resizeLast=0;collapsible=1;marginBottom=0;swimlaneFillColor=#ffffff;rounded=0;shadow=0;comic=0;labelBackgroundColor=none;strokeWidth=1;fillColor=none;fontFamily=Verdana;fontSize=12" vertex="1" parent="1">
          <mxGeometry x="235" y="557" width="190" height="100" as="geometry" />
        </mxCell>
        <mxCell id="Q0jK7k3F3PSRROY3Gwau-35" value="&lt;font style=&quot;font-size: 8px;&quot;&gt;+&amp;nbsp;&lt;span style=&quot;text-wrap-mode: nowrap;&quot;&gt;RunCPU(Image&amp;lt;Rgba32&amp;gt;): Image&amp;lt;Rgba32&amp;gt;&lt;/span&gt;&lt;/font&gt;" style="text;html=1;strokeColor=none;fillColor=none;align=left;verticalAlign=top;spacingLeft=4;spacingRight=4;whiteSpace=wrap;overflow=hidden;rotatable=0;points=[[0,0.5],[1,0.5]];portConstraint=eastwest;" vertex="1" parent="Q0jK7k3F3PSRROY3Gwau-34">
          <mxGeometry y="40" width="190" height="22" as="geometry" />
        </mxCell>
        <mxCell id="Q0jK7k3F3PSRROY3Gwau-36" value="&lt;font style=&quot;font-size: 8px;&quot;&gt;+&amp;nbsp;&lt;span style=&quot;text-wrap-mode: nowrap;&quot;&gt;RunGPU(Image&amp;lt;Rgba32&amp;gt;): Image&amp;lt;Rgba32&amp;gt;&lt;/span&gt;&lt;/font&gt;" style="text;html=1;strokeColor=none;fillColor=none;align=left;verticalAlign=top;spacingLeft=4;spacingRight=4;whiteSpace=wrap;overflow=hidden;rotatable=0;points=[[0,0.5],[1,0.5]];portConstraint=eastwest;" vertex="1" parent="Q0jK7k3F3PSRROY3Gwau-34">
          <mxGeometry y="62" width="190" height="26" as="geometry" />
        </mxCell>
        <mxCell id="Q0jK7k3F3PSRROY3Gwau-45" style="endArrow=block;endSize=16;endFill=0;html=1;rounded=0;strokeColor=default;align=center;verticalAlign=middle;fontFamily=Helvetica;fontSize=12;fontColor=default;labelBackgroundColor=default;edgeStyle=orthogonalEdgeStyle;" edge="1" parent="1" source="Q0jK7k3F3PSRROY3Gwau-40" target="78961159f06e98e8-69">
          <mxGeometry relative="1" as="geometry" />
        </mxCell>
        <mxCell id="Q0jK7k3F3PSRROY3Gwau-40" value="Contrast&lt;div&gt;&lt;div&gt;Preprocessor&lt;/div&gt;&lt;/div&gt;" style="swimlane;html=1;fontStyle=1;align=center;verticalAlign=top;childLayout=stackLayout;horizontal=1;startSize=40;horizontalStack=0;resizeParent=1;resizeLast=0;collapsible=1;marginBottom=0;swimlaneFillColor=#ffffff;rounded=0;shadow=0;comic=0;labelBackgroundColor=none;strokeWidth=1;fillColor=none;fontFamily=Verdana;fontSize=12" vertex="1" parent="1">
          <mxGeometry x="435" y="557" width="190" height="100" as="geometry" />
        </mxCell>
        <mxCell id="Q0jK7k3F3PSRROY3Gwau-41" value="&lt;font style=&quot;font-size: 8px;&quot;&gt;+&amp;nbsp;&lt;span style=&quot;text-wrap-mode: nowrap;&quot;&gt;RunCPU(Image&amp;lt;Rgba32&amp;gt;): Image&amp;lt;Rgba32&amp;gt;&lt;/span&gt;&lt;/font&gt;" style="text;html=1;strokeColor=none;fillColor=none;align=left;verticalAlign=top;spacingLeft=4;spacingRight=4;whiteSpace=wrap;overflow=hidden;rotatable=0;points=[[0,0.5],[1,0.5]];portConstraint=eastwest;" vertex="1" parent="Q0jK7k3F3PSRROY3Gwau-40">
          <mxGeometry y="40" width="190" height="22" as="geometry" />
        </mxCell>
        <mxCell id="Q0jK7k3F3PSRROY3Gwau-42" value="&lt;font style=&quot;font-size: 8px;&quot;&gt;+&amp;nbsp;&lt;span style=&quot;text-wrap-mode: nowrap;&quot;&gt;RunGPU(Image&amp;lt;Rgba32&amp;gt;): Image&amp;lt;Rgba32&amp;gt;&lt;/span&gt;&lt;/font&gt;" style="text;html=1;strokeColor=none;fillColor=none;align=left;verticalAlign=top;spacingLeft=4;spacingRight=4;whiteSpace=wrap;overflow=hidden;rotatable=0;points=[[0,0.5],[1,0.5]];portConstraint=eastwest;" vertex="1" parent="Q0jK7k3F3PSRROY3Gwau-40">
          <mxGeometry y="62" width="190" height="26" as="geometry" />
        </mxCell>
        <mxCell id="Q0jK7k3F3PSRROY3Gwau-117" style="edgeStyle=orthogonalEdgeStyle;shape=connector;rounded=0;orthogonalLoop=1;jettySize=auto;html=1;exitX=0.5;exitY=1;exitDx=0;exitDy=0;entryX=0.5;entryY=0;entryDx=0;entryDy=0;dashed=1;strokeColor=default;align=center;verticalAlign=middle;fontFamily=Helvetica;fontSize=12;fontColor=default;labelBackgroundColor=default;endArrow=open;endSize=12;" edge="1" parent="1" source="Q0jK7k3F3PSRROY3Gwau-48" target="Q0jK7k3F3PSRROY3Gwau-100">
          <mxGeometry relative="1" as="geometry" />
        </mxCell>
        <mxCell id="Q0jK7k3F3PSRROY3Gwau-48" value="&lt;div&gt;EdgeDetector&lt;/div&gt;&lt;div&gt;&lt;span style=&quot;font-weight: normal;&quot;&gt;static class&lt;/span&gt;&lt;/div&gt;&lt;div&gt;&lt;span style=&quot;font-weight: normal;&quot;&gt;&lt;br&gt;&lt;/span&gt;&lt;/div&gt;" style="swimlane;html=1;fontStyle=1;align=center;verticalAlign=top;childLayout=stackLayout;horizontal=1;startSize=37;horizontalStack=0;resizeParent=1;resizeLast=0;collapsible=1;marginBottom=0;swimlaneFillColor=#ffffff;rounded=0;shadow=0;comic=0;labelBackgroundColor=none;strokeWidth=1;fillColor=none;fontFamily=Verdana;fontSize=12" vertex="1" parent="1">
          <mxGeometry x="545" y="119" width="340" height="248" as="geometry">
            <mxRectangle x="160" y="333" width="110" height="30" as="alternateBounds" />
          </mxGeometry>
        </mxCell>
        <mxCell id="Q0jK7k3F3PSRROY3Gwau-49" value="+ Sobel: Kernel&lt;div&gt;+ Prewitt: Kernel&lt;/div&gt;&lt;div&gt;+ Kernels: Dictionary&amp;lt;OperatorType, Kernel&amp;gt;&lt;/div&gt;" style="text;html=1;strokeColor=none;fillColor=none;align=left;verticalAlign=top;spacingLeft=4;spacingRight=4;whiteSpace=wrap;overflow=hidden;rotatable=0;points=[[0,0.5],[1,0.5]];portConstraint=eastwest;" vertex="1" parent="Q0jK7k3F3PSRROY3Gwau-48">
          <mxGeometry y="37" width="340" height="63" as="geometry" />
        </mxCell>
        <mxCell id="Q0jK7k3F3PSRROY3Gwau-50" value="" style="line;html=1;strokeWidth=1;fillColor=none;align=left;verticalAlign=middle;spacingTop=-1;spacingLeft=3;spacingRight=3;rotatable=0;labelPosition=right;points=[];portConstraint=eastwest;" vertex="1" parent="Q0jK7k3F3PSRROY3Gwau-48">
          <mxGeometry y="100" width="340" height="8" as="geometry" />
        </mxCell>
        <mxCell id="Q0jK7k3F3PSRROY3Gwau-51" value="+&amp;nbsp;&lt;span style=&quot;text-wrap-mode: nowrap;&quot;&gt;Run(Image&amp;lt;Rgba32&amp;gt;): Image&amp;lt;Rgba32&amp;gt;&lt;/span&gt;" style="text;html=1;strokeColor=none;fillColor=none;align=left;verticalAlign=top;spacingLeft=4;spacingRight=4;whiteSpace=wrap;overflow=hidden;rotatable=0;points=[[0,0.5],[1,0.5]];portConstraint=eastwest;" vertex="1" parent="Q0jK7k3F3PSRROY3Gwau-48">
          <mxGeometry y="108" width="340" height="26" as="geometry" />
        </mxCell>
        <mxCell id="Q0jK7k3F3PSRROY3Gwau-52" value="+&amp;nbsp;&lt;span style=&quot;text-wrap-mode: nowrap;&quot;&gt;ApplyPreprocessing(Image&amp;lt;Rgba32&amp;gt;): Image&amp;lt;Rgba32&amp;gt;&lt;/span&gt;" style="text;html=1;strokeColor=none;fillColor=none;align=left;verticalAlign=top;spacingLeft=4;spacingRight=4;whiteSpace=wrap;overflow=hidden;rotatable=0;points=[[0,0.5],[1,0.5]];portConstraint=eastwest;" vertex="1" parent="Q0jK7k3F3PSRROY3Gwau-48">
          <mxGeometry y="134" width="340" height="26" as="geometry" />
        </mxCell>
        <mxCell id="Q0jK7k3F3PSRROY3Gwau-53" value="+&amp;nbsp;&lt;span style=&quot;text-wrap-mode: nowrap;&quot;&gt;DetectEdges(Image&amp;lt;Rgba32&amp;gt;): Image&amp;lt;Rgba32&amp;gt;&lt;/span&gt;" style="text;html=1;strokeColor=none;fillColor=none;align=left;verticalAlign=top;spacingLeft=4;spacingRight=4;whiteSpace=wrap;overflow=hidden;rotatable=0;points=[[0,0.5],[1,0.5]];portConstraint=eastwest;" vertex="1" parent="Q0jK7k3F3PSRROY3Gwau-48">
          <mxGeometry y="160" width="340" height="26" as="geometry" />
        </mxCell>
        <mxCell id="Q0jK7k3F3PSRROY3Gwau-57" value="+&amp;nbsp;&lt;span style=&quot;text-wrap-mode: nowrap;&quot;&gt;DetectEdgesGPU(Image&amp;lt;Rgba32&amp;gt;): Image&amp;lt;Rgba32&amp;gt;&lt;/span&gt;" style="text;html=1;strokeColor=none;fillColor=none;align=left;verticalAlign=top;spacingLeft=4;spacingRight=4;whiteSpace=wrap;overflow=hidden;rotatable=0;points=[[0,0.5],[1,0.5]];portConstraint=eastwest;" vertex="1" parent="Q0jK7k3F3PSRROY3Gwau-48">
          <mxGeometry y="186" width="340" height="26" as="geometry" />
        </mxCell>
        <mxCell id="Q0jK7k3F3PSRROY3Gwau-58" value="+&amp;nbsp;&lt;span style=&quot;text-wrap-mode: nowrap;&quot;&gt;DetectEdgesCPU(Image&amp;lt;Rgba32&amp;gt;): Image&amp;lt;Rgba32&amp;gt;&lt;/span&gt;" style="text;html=1;strokeColor=none;fillColor=none;align=left;verticalAlign=top;spacingLeft=4;spacingRight=4;whiteSpace=wrap;overflow=hidden;rotatable=0;points=[[0,0.5],[1,0.5]];portConstraint=eastwest;" vertex="1" parent="Q0jK7k3F3PSRROY3Gwau-48">
          <mxGeometry y="212" width="340" height="26" as="geometry" />
        </mxCell>
        <mxCell id="Q0jK7k3F3PSRROY3Gwau-54" value="" style="group" connectable="0" vertex="1" parent="1">
          <mxGeometry x="320" y="274" width="20" height="20" as="geometry" />
        </mxCell>
        <mxCell id="Q0jK7k3F3PSRROY3Gwau-19" value="" style="triangle;whiteSpace=wrap;html=1;rotation=0;direction=south;" vertex="1" parent="Q0jK7k3F3PSRROY3Gwau-54">
          <mxGeometry width="20" height="20" as="geometry" />
        </mxCell>
        <mxCell id="Q0jK7k3F3PSRROY3Gwau-28" value="" style="endArrow=none;dashed=1;html=1;rounded=0;movable=1;resizable=1;rotatable=1;deletable=1;editable=1;locked=0;connectable=1;exitX=0;exitY=0.5;exitDx=0;exitDy=0;entryX=0.5;entryY=1;entryDx=0;entryDy=0;" edge="1" parent="Q0jK7k3F3PSRROY3Gwau-54" source="Q0jK7k3F3PSRROY3Gwau-19" target="b94bc138ca980ef-1">
          <mxGeometry width="50" height="50" relative="1" as="geometry">
            <mxPoint x="-60" y="-14" as="sourcePoint" />
            <mxPoint x="-10" y="-64" as="targetPoint" />
          </mxGeometry>
        </mxCell>
        <mxCell id="Q0jK7k3F3PSRROY3Gwau-60" value="Kernel" style="swimlane;fontStyle=1;align=center;verticalAlign=top;childLayout=stackLayout;horizontal=1;startSize=26;horizontalStack=0;resizeParent=1;resizeParentMax=0;resizeLast=0;collapsible=1;marginBottom=0;whiteSpace=wrap;html=1;pointerEvents=0;fontFamily=Helvetica;fontSize=12;fontColor=default;fillColor=none;gradientColor=none;" vertex="1" parent="1">
          <mxGeometry x="945" y="123" width="200" height="112" as="geometry" />
        </mxCell>
        <mxCell id="Q0jK7k3F3PSRROY3Gwau-61" value="+ gx: int[,]" style="text;strokeColor=none;fillColor=none;align=left;verticalAlign=top;spacingLeft=4;spacingRight=4;overflow=hidden;rotatable=0;points=[[0,0.5],[1,0.5]];portConstraint=eastwest;whiteSpace=wrap;html=1;fontFamily=Helvetica;fontSize=12;fontColor=default;" vertex="1" parent="Q0jK7k3F3PSRROY3Gwau-60">
          <mxGeometry y="26" width="200" height="26" as="geometry" />
        </mxCell>
        <mxCell id="Q0jK7k3F3PSRROY3Gwau-64" value="+ gy&lt;span style=&quot;background-color: transparent; color: light-dark(rgb(0, 0, 0), rgb(255, 255, 255));&quot;&gt;: int[,]&lt;/span&gt;" style="text;strokeColor=none;fillColor=none;align=left;verticalAlign=top;spacingLeft=4;spacingRight=4;overflow=hidden;rotatable=0;points=[[0,0.5],[1,0.5]];portConstraint=eastwest;whiteSpace=wrap;html=1;fontFamily=Helvetica;fontSize=12;fontColor=default;" vertex="1" parent="Q0jK7k3F3PSRROY3Gwau-60">
          <mxGeometry y="52" width="200" height="26" as="geometry" />
        </mxCell>
        <mxCell id="Q0jK7k3F3PSRROY3Gwau-62" value="" style="line;strokeWidth=1;fillColor=none;align=left;verticalAlign=middle;spacingTop=-1;spacingLeft=3;spacingRight=3;rotatable=0;labelPosition=right;points=[];portConstraint=eastwest;strokeColor=inherit;pointerEvents=0;fontFamily=Helvetica;fontSize=12;fontColor=default;" vertex="1" parent="Q0jK7k3F3PSRROY3Gwau-60">
          <mxGeometry y="78" width="200" height="8" as="geometry" />
        </mxCell>
        <mxCell id="Q0jK7k3F3PSRROY3Gwau-63" value="+ ToKernel3x3(int[,]): Kernel3x3" style="text;strokeColor=none;fillColor=none;align=left;verticalAlign=top;spacingLeft=4;spacingRight=4;overflow=hidden;rotatable=0;points=[[0,0.5],[1,0.5]];portConstraint=eastwest;whiteSpace=wrap;html=1;fontFamily=Helvetica;fontSize=12;fontColor=default;" vertex="1" parent="Q0jK7k3F3PSRROY3Gwau-60">
          <mxGeometry y="86" width="200" height="26" as="geometry" />
        </mxCell>
        <mxCell id="Q0jK7k3F3PSRROY3Gwau-65" style="endArrow=open;startArrow=circlePlus;endFill=0;startFill=0;endSize=8;html=1;rounded=0;strokeColor=default;align=center;verticalAlign=middle;fontFamily=Helvetica;fontSize=12;fontColor=default;labelBackgroundColor=default;edgeStyle=orthogonalEdgeStyle;" edge="1" parent="1" source="Q0jK7k3F3PSRROY3Gwau-49" target="Q0jK7k3F3PSRROY3Gwau-64">
          <mxGeometry relative="1" as="geometry" />
        </mxCell>
        <mxCell id="Q0jK7k3F3PSRROY3Gwau-73" value="&lt;span style=&quot;font-weight: 400; text-align: left; background-color: rgb(236, 236, 236);&quot;&gt;Kernel3x3&lt;/span&gt;" style="swimlane;fontStyle=1;align=center;verticalAlign=top;childLayout=stackLayout;horizontal=1;startSize=26;horizontalStack=0;resizeParent=1;resizeParentMax=0;resizeLast=0;collapsible=1;marginBottom=0;whiteSpace=wrap;html=1;pointerEvents=0;fontFamily=Helvetica;fontSize=12;fontColor=default;labelBackgroundColor=default;fillColor=none;gradientColor=none;" vertex="1" parent="1">
          <mxGeometry x="1210" y="122" width="160" height="104" as="geometry" />
        </mxCell>
        <mxCell id="Q0jK7k3F3PSRROY3Gwau-74" value="+ r0: Vector4" style="text;strokeColor=none;fillColor=none;align=left;verticalAlign=top;spacingLeft=4;spacingRight=4;overflow=hidden;rotatable=0;points=[[0,0.5],[1,0.5]];portConstraint=eastwest;whiteSpace=wrap;html=1;fontFamily=Helvetica;fontSize=12;fontColor=default;labelBackgroundColor=default;" vertex="1" parent="Q0jK7k3F3PSRROY3Gwau-73">
          <mxGeometry y="26" width="160" height="26" as="geometry" />
        </mxCell>
        <mxCell id="Q0jK7k3F3PSRROY3Gwau-77" value="+ r1: Vector4" style="text;strokeColor=none;fillColor=none;align=left;verticalAlign=top;spacingLeft=4;spacingRight=4;overflow=hidden;rotatable=0;points=[[0,0.5],[1,0.5]];portConstraint=eastwest;whiteSpace=wrap;html=1;fontFamily=Helvetica;fontSize=12;fontColor=default;labelBackgroundColor=default;" vertex="1" parent="Q0jK7k3F3PSRROY3Gwau-73">
          <mxGeometry y="52" width="160" height="26" as="geometry" />
        </mxCell>
        <mxCell id="Q0jK7k3F3PSRROY3Gwau-78" value="+ r2: Vector4" style="text;strokeColor=none;fillColor=none;align=left;verticalAlign=top;spacingLeft=4;spacingRight=4;overflow=hidden;rotatable=0;points=[[0,0.5],[1,0.5]];portConstraint=eastwest;whiteSpace=wrap;html=1;fontFamily=Helvetica;fontSize=12;fontColor=default;labelBackgroundColor=default;" vertex="1" parent="Q0jK7k3F3PSRROY3Gwau-73">
          <mxGeometry y="78" width="160" height="26" as="geometry" />
        </mxCell>
        <mxCell id="Q0jK7k3F3PSRROY3Gwau-84" style="endArrow=open;endFill=1;endSize=12;html=1;rounded=0;strokeColor=default;align=center;verticalAlign=middle;fontFamily=Helvetica;fontSize=12;fontColor=default;labelBackgroundColor=default;edgeStyle=orthogonalEdgeStyle;" edge="1" parent="1" source="Q0jK7k3F3PSRROY3Gwau-64" target="Q0jK7k3F3PSRROY3Gwau-77">
          <mxGeometry relative="1" as="geometry" />
        </mxCell>
        <object label="" id="Q0jK7k3F3PSRROY3Gwau-86">
          <mxCell style="endArrow=open;endSize=12;dashed=1;html=1;rounded=0;strokeColor=default;align=center;verticalAlign=middle;fontFamily=Helvetica;fontSize=12;fontColor=default;labelBackgroundColor=default;edgeStyle=orthogonalEdgeStyle;entryX=1;entryY=0.5;entryDx=0;entryDy=0;" edge="1" parent="1" source="Q0jK7k3F3PSRROY3Gwau-51" target="b94bc138ca980ef-1">
            <mxGeometry relative="1" as="geometry" />
          </mxCell>
        </object>
        <mxCell id="Q0jK7k3F3PSRROY3Gwau-88" value="EdgeDetection.Core.GPU.Parameters" style="verticalAlign=top;align=left;spacingTop=8;spacingLeft=2;spacingRight=12;shape=cube;size=10;direction=south;fontStyle=4;html=1;whiteSpace=wrap;pointerEvents=0;fontFamily=Helvetica;fontSize=12;fontColor=default;labelBackgroundColor=default;fillColor=none;gradientColor=none;" vertex="1" parent="1">
          <mxGeometry x="1175" y="68" width="380" height="389" as="geometry" />
        </mxCell>
        <mxCell id="Q0jK7k3F3PSRROY3Gwau-89" value="&lt;div&gt;ComputeParams&lt;/div&gt;&lt;div&gt;&lt;span style=&quot;font-weight: normal;&quot;&gt;static class&lt;/span&gt;&lt;/div&gt;&lt;div&gt;&lt;span style=&quot;font-weight: normal;&quot;&gt;&lt;br&gt;&lt;/span&gt;&lt;/div&gt;" style="swimlane;html=1;fontStyle=1;align=center;verticalAlign=top;childLayout=stackLayout;horizontal=1;startSize=37;horizontalStack=0;resizeParent=1;resizeLast=0;collapsible=1;marginBottom=0;swimlaneFillColor=#ffffff;rounded=0;shadow=0;comic=0;labelBackgroundColor=none;strokeWidth=1;fillColor=none;fontFamily=Verdana;fontSize=12" vertex="1" parent="1">
          <mxGeometry x="1195" y="260" width="340" height="137" as="geometry">
            <mxRectangle x="160" y="333" width="110" height="30" as="alternateBounds" />
          </mxGeometry>
        </mxCell>
        <mxCell id="Q0jK7k3F3PSRROY3Gwau-91" value="" style="line;html=1;strokeWidth=1;fillColor=none;align=left;verticalAlign=middle;spacingTop=-1;spacingLeft=3;spacingRight=3;rotatable=0;labelPosition=right;points=[];portConstraint=eastwest;" vertex="1" parent="Q0jK7k3F3PSRROY3Gwau-89">
          <mxGeometry y="37" width="340" height="8" as="geometry" />
        </mxCell>
        <mxCell id="Q0jK7k3F3PSRROY3Gwau-96" value="buffer layout struct: Base" style="text;html=1;strokeColor=none;fillColor=none;align=left;verticalAlign=top;spacingLeft=4;spacingRight=4;whiteSpace=wrap;overflow=hidden;rotatable=0;points=[[0,0.5],[1,0.5]];portConstraint=eastwest;" vertex="1" parent="Q0jK7k3F3PSRROY3Gwau-89">
          <mxGeometry y="45" width="340" height="26" as="geometry" />
        </mxCell>
        <mxCell id="Q0jK7k3F3PSRROY3Gwau-97" value="buffer layout struct: FloatController" style="text;html=1;strokeColor=none;fillColor=none;align=left;verticalAlign=top;spacingLeft=4;spacingRight=4;whiteSpace=wrap;overflow=hidden;rotatable=0;points=[[0,0.5],[1,0.5]];portConstraint=eastwest;" vertex="1" parent="Q0jK7k3F3PSRROY3Gwau-89">
          <mxGeometry y="71" width="340" height="26" as="geometry" />
        </mxCell>
        <mxCell id="Q0jK7k3F3PSRROY3Gwau-98" value="buffer layout struct: Edge" style="text;html=1;strokeColor=none;fillColor=none;align=left;verticalAlign=top;spacingLeft=4;spacingRight=4;whiteSpace=wrap;overflow=hidden;rotatable=0;points=[[0,0.5],[1,0.5]];portConstraint=eastwest;" vertex="1" parent="Q0jK7k3F3PSRROY3Gwau-89">
          <mxGeometry y="97" width="340" height="26" as="geometry" />
        </mxCell>
        <mxCell id="Q0jK7k3F3PSRROY3Gwau-99" value="Use" style="endArrow=open;endSize=12;dashed=1;html=1;rounded=0;strokeColor=default;align=center;verticalAlign=middle;fontFamily=Helvetica;fontSize=12;fontColor=default;labelBackgroundColor=default;edgeStyle=orthogonalEdgeStyle;entryX=0.488;entryY=0.962;entryDx=0;entryDy=0;entryPerimeter=0;exitX=0.5;exitY=0;exitDx=0;exitDy=0;" edge="1" parent="1" source="Q0jK7k3F3PSRROY3Gwau-89" target="Q0jK7k3F3PSRROY3Gwau-78">
          <mxGeometry width="160" relative="1" as="geometry">
            <mxPoint x="900" y="442" as="sourcePoint" />
            <mxPoint x="1060" y="442" as="targetPoint" />
          </mxGeometry>
        </mxCell>
        <mxCell id="Q0jK7k3F3PSRROY3Gwau-100" value="&lt;div&gt;GPUProcessingManager&lt;/div&gt;&lt;div&gt;&lt;span style=&quot;font-weight: normal;&quot;&gt;static class&lt;/span&gt;&lt;/div&gt;&lt;div&gt;&lt;span style=&quot;font-weight: normal;&quot;&gt;&lt;br&gt;&lt;/span&gt;&lt;/div&gt;" style="swimlane;html=1;fontStyle=1;align=center;verticalAlign=top;childLayout=stackLayout;horizontal=1;startSize=37;horizontalStack=0;resizeParent=1;resizeLast=0;collapsible=1;marginBottom=0;swimlaneFillColor=#ffffff;rounded=0;shadow=0;comic=0;labelBackgroundColor=none;strokeWidth=1;fillColor=none;fontFamily=Verdana;fontSize=12" vertex="1" parent="1">
          <mxGeometry x="660" y="412" width="405" height="420" as="geometry">
            <mxRectangle x="160" y="333" width="110" height="30" as="alternateBounds" />
          </mxGeometry>
        </mxCell>
        <mxCell id="Q0jK7k3F3PSRROY3Gwau-101" value="+ _device: GraphicsDevice&lt;div&gt;+ _layout: ResourceLayout&lt;/div&gt;&lt;div&gt;+ _shaders: Dictionary&amp;lt;string, Shader&amp;gt;&lt;/div&gt;" style="text;html=1;strokeColor=none;fillColor=none;align=left;verticalAlign=top;spacingLeft=4;spacingRight=4;whiteSpace=wrap;overflow=hidden;rotatable=0;points=[[0,0.5],[1,0.5]];portConstraint=eastwest;" vertex="1" parent="Q0jK7k3F3PSRROY3Gwau-100">
          <mxGeometry y="37" width="405" height="63" as="geometry" />
        </mxCell>
        <mxCell id="Q0jK7k3F3PSRROY3Gwau-102" value="" style="line;html=1;strokeWidth=1;fillColor=none;align=left;verticalAlign=middle;spacingTop=-1;spacingLeft=3;spacingRight=3;rotatable=0;labelPosition=right;points=[];portConstraint=eastwest;" vertex="1" parent="Q0jK7k3F3PSRROY3Gwau-100">
          <mxGeometry y="100" width="405" height="8" as="geometry" />
        </mxCell>
        <mxCell id="Q0jK7k3F3PSRROY3Gwau-103" value="+&amp;nbsp;&lt;span style=&quot;text-wrap-mode: nowrap;&quot;&gt;Initialize(): void&lt;/span&gt;" style="text;html=1;strokeColor=none;fillColor=none;align=left;verticalAlign=top;spacingLeft=4;spacingRight=4;whiteSpace=wrap;overflow=hidden;rotatable=0;points=[[0,0.5],[1,0.5]];portConstraint=eastwest;" vertex="1" parent="Q0jK7k3F3PSRROY3Gwau-100">
          <mxGeometry y="108" width="405" height="26" as="geometry" />
        </mxCell>
        <mxCell id="Q0jK7k3F3PSRROY3Gwau-105" value="+&amp;nbsp;&lt;span style=&quot;text-wrap-mode: nowrap;&quot;&gt;InitializeGraphicsDevice(): void&lt;/span&gt;" style="text;html=1;strokeColor=none;fillColor=none;align=left;verticalAlign=top;spacingLeft=4;spacingRight=4;whiteSpace=wrap;overflow=hidden;rotatable=0;points=[[0,0.5],[1,0.5]];portConstraint=eastwest;" vertex="1" parent="Q0jK7k3F3PSRROY3Gwau-100">
          <mxGeometry y="134" width="405" height="26" as="geometry" />
        </mxCell>
        <mxCell id="Q0jK7k3F3PSRROY3Gwau-108" value="+&amp;nbsp;&lt;span style=&quot;text-wrap-mode: nowrap;&quot;&gt;InitializeCompute(): void&lt;/span&gt;" style="text;html=1;strokeColor=none;fillColor=none;align=left;verticalAlign=top;spacingLeft=4;spacingRight=4;whiteSpace=wrap;overflow=hidden;rotatable=0;points=[[0,0.5],[1,0.5]];portConstraint=eastwest;" vertex="1" parent="Q0jK7k3F3PSRROY3Gwau-100">
          <mxGeometry y="160" width="405" height="26" as="geometry" />
        </mxCell>
        <mxCell id="Q0jK7k3F3PSRROY3Gwau-109" value="+&amp;nbsp;&lt;span style=&quot;text-wrap-mode: nowrap;&quot;&gt;InitializeLayout(): void&lt;/span&gt;" style="text;html=1;strokeColor=none;fillColor=none;align=left;verticalAlign=top;spacingLeft=4;spacingRight=4;whiteSpace=wrap;overflow=hidden;rotatable=0;points=[[0,0.5],[1,0.5]];portConstraint=eastwest;" vertex="1" parent="Q0jK7k3F3PSRROY3Gwau-100">
          <mxGeometry y="186" width="405" height="26" as="geometry" />
        </mxCell>
        <mxCell id="Q0jK7k3F3PSRROY3Gwau-104" value="+&amp;nbsp;&lt;span style=&quot;text-wrap-mode: nowrap;&quot;&gt;Process&amp;lt;TParams&amp;gt;(Image&amp;lt;Rgba32&amp;gt;, TParams, key): Image&amp;lt;Rgba32&amp;gt;&lt;/span&gt;" style="text;html=1;strokeColor=none;fillColor=none;align=left;verticalAlign=top;spacingLeft=4;spacingRight=4;whiteSpace=wrap;overflow=hidden;rotatable=0;points=[[0,0.5],[1,0.5]];portConstraint=eastwest;" vertex="1" parent="Q0jK7k3F3PSRROY3Gwau-100">
          <mxGeometry y="212" width="405" height="26" as="geometry" />
        </mxCell>
        <mxCell id="Q0jK7k3F3PSRROY3Gwau-111" value="+&amp;nbsp;&lt;span style=&quot;text-wrap-mode: nowrap;&quot;&gt;CreateBuffer&amp;lt;TParams&amp;gt;(Image&amp;lt;Rgba32&amp;gt;, TParams):&amp;nbsp;DeviceBuffer&lt;/span&gt;" style="text;html=1;strokeColor=none;fillColor=none;align=left;verticalAlign=top;spacingLeft=4;spacingRight=4;whiteSpace=wrap;overflow=hidden;rotatable=0;points=[[0,0.5],[1,0.5]];portConstraint=eastwest;" vertex="1" parent="Q0jK7k3F3PSRROY3Gwau-100">
          <mxGeometry y="238" width="405" height="26" as="geometry" />
        </mxCell>
        <mxCell id="Q0jK7k3F3PSRROY3Gwau-112" value="+&amp;nbsp;&lt;span style=&quot;text-wrap-mode: nowrap;&quot;&gt;CreatePipeline (Shader, ResourceLayout):&amp;nbsp;Pipeline&lt;/span&gt;" style="text;html=1;strokeColor=none;fillColor=none;align=left;verticalAlign=top;spacingLeft=4;spacingRight=4;whiteSpace=wrap;overflow=hidden;rotatable=0;points=[[0,0.5],[1,0.5]];portConstraint=eastwest;" vertex="1" parent="Q0jK7k3F3PSRROY3Gwau-100">
          <mxGeometry y="264" width="405" height="26" as="geometry" />
        </mxCell>
        <mxCell id="Q0jK7k3F3PSRROY3Gwau-113" value="+&amp;nbsp;&lt;span style=&quot;text-wrap-mode: nowrap;&quot;&gt;CreateResourceSet(DeviceBuffer,&amp;nbsp;&lt;/span&gt;&lt;span style=&quot;text-wrap-mode: nowrap;&quot;&gt;Texture&lt;/span&gt;&lt;span style=&quot;text-wrap-mode: nowrap;&quot;&gt;):&amp;nbsp;ResourceSet&lt;/span&gt;" style="text;html=1;strokeColor=none;fillColor=none;align=left;verticalAlign=top;spacingLeft=4;spacingRight=4;whiteSpace=wrap;overflow=hidden;rotatable=0;points=[[0,0.5],[1,0.5]];portConstraint=eastwest;" vertex="1" parent="Q0jK7k3F3PSRROY3Gwau-100">
          <mxGeometry y="290" width="405" height="26" as="geometry" />
        </mxCell>
        <mxCell id="Q0jK7k3F3PSRROY3Gwau-110" value="+&amp;nbsp;&lt;span style=&quot;text-wrap-mode: nowrap;&quot;&gt;GetMaps(Image&amp;lt;Rgba32&amp;gt;): (Texture,&amp;nbsp;Texture)&lt;/span&gt;" style="text;html=1;strokeColor=none;fillColor=none;align=left;verticalAlign=top;spacingLeft=4;spacingRight=4;whiteSpace=wrap;overflow=hidden;rotatable=0;points=[[0,0.5],[1,0.5]];portConstraint=eastwest;" vertex="1" parent="Q0jK7k3F3PSRROY3Gwau-100">
          <mxGeometry y="316" width="405" height="26" as="geometry" />
        </mxCell>
        <mxCell id="Q0jK7k3F3PSRROY3Gwau-114" value="+&amp;nbsp;&lt;span style=&quot;text-wrap-mode: nowrap;&quot;&gt;ExecuteGPUProgram(...):&amp;nbsp;Image&amp;lt;Rgba32&amp;gt;&lt;/span&gt;" style="text;html=1;strokeColor=none;fillColor=none;align=left;verticalAlign=top;spacingLeft=4;spacingRight=4;whiteSpace=wrap;overflow=hidden;rotatable=0;points=[[0,0.5],[1,0.5]];portConstraint=eastwest;" vertex="1" parent="Q0jK7k3F3PSRROY3Gwau-100">
          <mxGeometry y="342" width="405" height="26" as="geometry" />
        </mxCell>
        <mxCell id="Q0jK7k3F3PSRROY3Gwau-115" value="+&amp;nbsp;&lt;span style=&quot;text-wrap-mode: nowrap;&quot;&gt;GetTextureBytes(Image&amp;lt;Rgba32&amp;gt;):&amp;nbsp;byte[]&amp;nbsp;&lt;/span&gt;" style="text;html=1;strokeColor=none;fillColor=none;align=left;verticalAlign=top;spacingLeft=4;spacingRight=4;whiteSpace=wrap;overflow=hidden;rotatable=0;points=[[0,0.5],[1,0.5]];portConstraint=eastwest;" vertex="1" parent="Q0jK7k3F3PSRROY3Gwau-100">
          <mxGeometry y="368" width="405" height="26" as="geometry" />
        </mxCell>
        <mxCell id="Q0jK7k3F3PSRROY3Gwau-116" value="+&amp;nbsp;CreateImage&lt;span style=&quot;text-wrap-mode: nowrap;&quot;&gt;(MappedResource):&amp;nbsp;Image&amp;lt;Rgba32&amp;gt;&lt;/span&gt;" style="text;html=1;strokeColor=none;fillColor=none;align=left;verticalAlign=top;spacingLeft=4;spacingRight=4;whiteSpace=wrap;overflow=hidden;rotatable=0;points=[[0,0.5],[1,0.5]];portConstraint=eastwest;" vertex="1" parent="Q0jK7k3F3PSRROY3Gwau-100">
          <mxGeometry y="394" width="405" height="26" as="geometry" />
        </mxCell>
        <mxCell id="Q0jK7k3F3PSRROY3Gwau-119" style="edgeStyle=orthogonalEdgeStyle;shape=connector;rounded=0;orthogonalLoop=1;jettySize=auto;html=1;entryX=0;entryY=0.5;entryDx=0;entryDy=0;dashed=1;strokeColor=default;align=center;verticalAlign=middle;fontFamily=Helvetica;fontSize=12;fontColor=default;labelBackgroundColor=default;endArrow=open;endSize=12;" edge="1" parent="1" source="Q0jK7k3F3PSRROY3Gwau-111" target="Q0jK7k3F3PSRROY3Gwau-97">
          <mxGeometry relative="1" as="geometry" />
        </mxCell>
        <mxCell id="Q0jK7k3F3PSRROY3Gwau-120" style="edgeStyle=orthogonalEdgeStyle;shape=connector;rounded=0;orthogonalLoop=1;jettySize=auto;html=1;exitX=1;exitY=0.5;exitDx=0;exitDy=0;entryX=0;entryY=0.5;entryDx=0;entryDy=0;dashed=1;strokeColor=default;align=center;verticalAlign=middle;fontFamily=Helvetica;fontSize=12;fontColor=default;labelBackgroundColor=default;endArrow=open;endSize=12;" edge="1" parent="1" source="Q0jK7k3F3PSRROY3Gwau-57" target="Q0jK7k3F3PSRROY3Gwau-96">
          <mxGeometry relative="1" as="geometry" />
        </mxCell>
      </root>
    </mxGraphModel>
  </diagram>
</mxfile>
